<svg xmlns="http://www.w3.org/2000/svg" viewBox="0 0 600 600" xmlns:v="https://vecta.io/nano"><defs><clipPath id="A"><path d="M0 0h600v600H0z" stroke-width="0" fill="none"/></clipPath></defs><g clip-path="url(#A)"><path d="m150,600c82.84,0,150-67.16,150-150s-67.16-150-150-150S0,367.16,0,450s67.16,150,150,150Z" fill="#5163eb"/><path d="M450 300c82.84 0 150-67.16 150-150S532.84 0 450 0 300 67.16 300 150s67.16 150 150 150z" fill="#3a4ad9"/><path d="M187.5 0h-75C50.37 0 0 50.37 0 112.5v75C0 249.63 50.37 300 112.5 300h75c62.13 0 112.5-50.37 112.5-112.5v-75C300 50.37 249.63 0 187.5 0z" fill="#2433c2"/><path d="M487.5 300h-75C350.37 300 300 350.37 300 412.5v75c0 62.13 50.37 112.5 112.5 112.5h75c62.13 0 112.5-50.37 112.5-112.5v-75c0-62.13-50.37-112.5-112.5-112.5z" fill="#687dfc"/></g></svg>