<svg width="16" height="16" viewBox="0 0 16 16" fill="none" xmlns="http://www.w3.org/2000/svg">
<g clip-path="url(#clip0_365_7)">
<g clip-path="url(#clip1_365_7)">
<path d="M4.0501 15.9C6.23162 15.9 8.0001 14.1315 8.0001 11.95C8.0001 9.76848 6.23162 8 4.0501 8C1.86857 8 0.100098 9.76848 0.100098 11.95C0.100098 14.1315 1.86857 15.9 4.0501 15.9Z" fill="#5163EB"/>
<path d="M11.95 7.99998C14.1315 7.99998 15.9 6.2315 15.9 4.04998C15.9 1.86845 14.1315 0.0999756 11.95 0.0999756C9.76848 0.0999756 8 1.86845 8 4.04998C8 6.2315 9.76848 7.99998 11.95 7.99998Z" fill="#3A4AD9"/>
<path d="M5.0376 0.0999756H3.0626C1.42645 0.0999756 0.100098 1.42633 0.100098 3.06248V5.03748C0.100098 6.67362 1.42645 7.99998 3.0626 7.99998H5.0376C6.67374 7.99998 8.0001 6.67362 8.0001 5.03748V3.06248C8.0001 1.42633 6.67374 0.0999756 5.0376 0.0999756Z" fill="#2433C2"/>
<path d="M12.9375 8H10.9625C9.32636 8 8 9.32636 8 10.9625V12.9375C8 14.5736 9.32636 15.9 10.9625 15.9H12.9375C14.5736 15.9 15.9 14.5736 15.9 12.9375V10.9625C15.9 9.32636 14.5736 8 12.9375 8Z" fill="#687DFC"/>
</g>
</g>
<defs>
<clipPath id="clip0_365_7">
<rect width="16" height="16" fill="white"/>
</clipPath>
<clipPath id="clip1_365_7">
<rect width="15.8" height="15.8" fill="white" transform="translate(0.100098 0.0999756)"/>
</clipPath>
</defs>
</svg>
