<?xml version="1.0" encoding="UTF-8"?>
<svg id="Layer_1" data-name="Layer 1" xmlns="http://www.w3.org/2000/svg" viewBox="0 0 512 512">
  <defs>
    <style>
      .cls-1 {
        fill: #fff;
      }
    </style>
  </defs>
  <path class="cls-1" d="m340.38,105.37h30.54c25.29,0,45.82,20.53,45.82,45.82v30.54c0,25.29-20.53,45.82-45.82,45.82h-30.54c-25.29,0-45.82-20.53-45.82-45.82v-30.54c0-25.29,20.53-45.82,45.82-45.82Z"/>
  <path class="cls-1" d="m436.16,237.89l-4.57-17.83c-.83-3.25-4.14-5.2-7.39-4.37l-258.84,66.34c22.06-9.21,37.57-30.99,37.57-56.39,0-33.74-27.35-61.09-61.09-61.09s-61.09,27.35-61.09,61.09,27.35,61.09,61.09,61.09c2.23,0,4.42-.13,6.59-.36l-67.52,17.31c-3.25.83-5.2,4.14-4.37,7.39l4.57,17.83c.83,3.25,4.14,5.2,7.39,4.37l343.29-87.98c3.25-.83,5.2-4.14,4.37-7.39Z"/>
  <path class="cls-1" d="m263.55,293.13c-2.34-4.05-8.18-4.05-10.51,0l-60.58,104.92c-2.34,4.05.58,9.1,5.26,9.1h121.15c4.67,0,7.59-5.06,5.26-9.1l-60.58-104.92Z"/>
</svg>