<svg width="64" height="96" viewBox="0 0 64 96" fill="none" xmlns="http://www.w3.org/2000/svg">
<path d="M19.9105 53.8815C18.7611 53.8815 17.7162 52.9411 17.7162 51.7917C17.7162 50.6424 18.6567 49.702 19.9105 49.702C21.1644 49.702 22.1048 50.6424 22.1048 51.7917C22.1048 52.9411 21.0599 53.8815 19.9105 53.8815ZM46.8689 42.4922C46.6599 40.8203 45.615 39.462 44.2567 38.4171L43.7342 37.9991L43.3162 38.5215C42.4803 39.462 42.1669 41.1338 42.2714 42.3877C42.3758 43.3281 42.6893 44.2685 43.2118 44.9999C42.7938 45.2089 42.2714 45.4179 41.8534 45.6269C40.913 45.9403 39.9726 46.0448 39.0322 46.0448H11.9693L11.8648 46.6717C11.6558 48.6571 11.9693 50.7469 12.8052 52.6277L13.2232 53.3591V53.4636C15.7309 57.6432 20.224 59.524 25.135 59.524C34.5391 59.524 42.2714 55.4489 45.9285 46.6717C48.3318 46.7762 50.735 46.1493 51.8844 43.8505L52.1979 43.3281L51.6754 43.0146C50.3171 42.1787 48.4362 42.0742 46.8689 42.4922ZM33.3897 40.8203H29.3146V44.8954H33.3897V40.8203ZM33.3897 35.7003H29.3146V39.7754H33.3897V35.7003ZM33.3897 30.4758H29.3146V34.5509H33.3897V30.4758ZM38.4052 40.8203H34.3301V44.8954H38.4052V40.8203ZM23.2542 40.8203H19.1791V44.8954H23.2542V40.8203ZM28.3742 40.8203H24.2991V44.8954H28.3742V40.8203ZM18.2387 40.8203H14.1636V44.8954H18.2387V40.8203ZM28.3742 35.7003H24.2991V39.7754H28.3742V35.7003ZM23.2542 35.7003H19.1791V39.7754H23.2542V35.7003Z" fill="black"/>
</svg>
